<svg width="512" height="512" viewBox="0 0 512 512" fill="none" xmlns="http://www.w3.org/2000/svg">
  <rect width="512" height="512" fill="#fede00"/>
  <g transform="translate(128 100) scale(2.5)">
    <!-- House outline -->
    <path d="M20 95 V 50 L50 30 L80 50 V 95 H 20 Z" fill="#F7E0A3" stroke="#3c3c3b" stroke-width="3" stroke-linejoin="round" />

    <!-- Roof -->
    <path d="M15 52 L 50 25 L 85 52" fill="#DD0000" stroke="#3c3c3b" stroke-width="3" stroke-linejoin="round" stroke-linecap="round"/>

    <!-- Timber details -->
    <path d="M20 65 H 80" stroke="#3c3c3b" stroke-width="2.5" />
    <path d="M50 95 V 30" stroke="#3c3c3b" stroke-width="2.5" />
    <path d="M22 93 L 50 50" stroke="#3c3c3b" stroke-width="2.5" />
    <path d="M78 93 L 50 50" stroke="#3c3c3b" stroke-width="2.5" />
    <path d="M22 63 L 50 30" stroke="#3c3c3b" stroke-width="2.5" />
    <path d="M78 63 L 50 30" stroke="#3c3c3b" stroke-width="2.5" />
    
    <!-- Windows -->
    <rect x="30" y="55" width="6" height="6" fill="#3c3c3b"/>
    <rect x="64" y="55" width="6" height="6" fill="#3c3c3b"/>
    <rect x="30" y="75" width="6" height="6" fill="#3c3c3b"/>
    <rect x="64" y="75" width="6" height="6" fill="#3c3c3b"/>

    <!-- Door -->
    <rect x="45" y="85" width="10" height="10" fill="#3c3c3b"/>

    <!-- Speech Bubble -->
    <g transform="translate(80, 40)">
      <path d="M-10 0 C -10 -15, 20 -15, 20 0 C 20 15, -10 15, -10 0 Z" fill="white" stroke="#3c3c3b" stroke-width="2"/>
      <path d="M-10 0 L -18 8 L -7 4 Z" fill="white" stroke="#3c3c3b" stroke-width="2" stroke-linejoin="round"/>
      <text x="5" y="5.5" font-family="Inter, sans-serif" font-size="9" text-anchor="middle" fill="#3c3c3b" font-weight="900">HALLO!</text>
    </g>
  </g>
</svg>